<svg width="384" height="500" viewBox="0 0 384 500" fill="none" xmlns="http://www.w3.org/2000/svg">
<path d="M198.836 0H183.804C82.212 0 0.591995 75.416 0.591995 168.14V263.912C0.591995 295.3 20.124 323.444 51.372 332.916V393.384C51.372 453.168 159.796 499.996 179.912 499.996H202.728C222.84 499.996 332.624 453.168 332.624 393.384V332.916C363.872 323.448 383.404 295.296 383.404 263.912V168.14C383.408 75.416 300.428 0 198.836 0ZM191.32 269.48C208.644 269.48 218.16 313.652 218.16 328.292C218.16 342.32 210.108 344.208 202.228 344.208C200.68 344.208 199.012 344.144 197.252 344.072C193.508 343.92 189.128 343.92 185.4 344.072C183.636 344.148 181.972 344.208 180.416 344.208C176.668 344.208 172.4 343.856 169.184 341.236C165.976 338.628 164.484 334.512 164.484 328.292C164.484 313.652 174 269.48 191.32 269.48ZM81.608 218.868C88.448 210.62 98.208 205.656 109.1 204.92L126.344 203.744C149.384 202.22 167.384 214.064 167.384 230.08C167.384 245.408 151.976 265.252 132.312 275.256L117.352 282.86C112.076 285.548 106.772 286.908 101.608 286.908C87.024 286.908 76.344 276.308 74.372 259.904L73.004 248.476C71.712 237.64 74.764 227.128 81.608 218.868ZM307.32 344.72L270.124 357.344V378.952C270.124 379.496 269.68 380.06 269.568 380.576C268.696 399.376 251.836 410.156 223.688 410.156H157.744C135.736 410.156 113.876 399.4 113.876 378.952V357.344L76.084 344.72C71.996 343.344 69.688 338.92 71.064 334.828C72.432 330.74 76.82 328.528 80.9 329.912L123.996 344.324C127.18 345.396 129.5 348.376 129.5 351.736V378.96C129.5 383.628 132.312 387.068 136.608 389.524C137.148 385.736 140.78 382.812 144.716 382.812C149.028 382.812 152.936 386.312 152.936 390.624V394.12C152.936 394.356 155.936 394.536 157.74 394.536H168.56V390.62C168.56 386.308 172.06 382.808 176.372 382.808C180.684 382.808 184.184 386.308 184.184 390.62V394.536H199.808V390.62C199.808 386.308 203.308 382.808 207.62 382.808C211.932 382.808 215.432 386.308 215.432 390.62V394.536H223.684C225.716 394.536 227.148 394.408 231.056 394.216V390.624C231.056 386.312 234.208 382.812 238.52 382.812C242.756 382.812 246.008 386.184 246.136 390.392C250.6 388.064 254.064 384.484 254.064 378.964C254.064 378.484 254.488 378.016 254.488 377.556V351.74C254.488 348.38 256.24 345.4 259.424 344.328L302.14 329.916C306.236 328.532 310.76 330.744 312.128 334.832C313.52 338.916 311.412 343.344 307.32 344.72ZM314.428 248.472L313.06 259.896C311.096 276.304 300.408 286.904 285.828 286.904C280.66 286.904 275.364 285.544 270.08 282.856L255.124 275.252C235.456 265.248 220.052 245.408 220.052 230.076C220.052 214.06 238.104 202.228 261.088 203.74L278.336 204.916C289.224 205.656 298.984 210.616 305.828 218.868C312.676 227.128 315.728 237.64 314.428 248.472Z" fill="#0174C1"/>
<path d="M146.741 151V70.936H119.525V56.824H190.661V70.936H163.445V151H146.741ZM229.206 152.728C222.87 152.728 216.726 151.528 210.774 149.128C204.918 146.728 199.734 143.32 195.222 138.904L205.014 127.528C208.374 130.696 212.214 133.288 216.534 135.304C220.854 137.224 225.174 138.184 229.494 138.184C234.87 138.184 238.95 137.08 241.734 134.872C244.518 132.664 245.91 129.736 245.91 126.088C245.91 124.168 245.526 122.536 244.758 121.192C244.086 119.848 243.078 118.696 241.734 117.736C240.486 116.68 238.95 115.72 237.126 114.856C235.398 113.992 233.478 113.128 231.366 112.264L218.406 106.648C216.102 105.688 213.798 104.488 211.494 103.048C209.286 101.608 207.27 99.88 205.446 97.864C203.622 95.848 202.134 93.496 200.982 90.808C199.926 88.12 199.398 85.048 199.398 81.592C199.398 77.848 200.166 74.392 201.702 71.224C203.334 67.96 205.542 65.128 208.326 62.728C211.11 60.328 214.422 58.456 218.262 57.112C222.198 55.768 226.47 55.096 231.078 55.096C236.55 55.096 241.83 56.2 246.918 58.408C252.006 60.52 256.374 63.4 260.022 67.048L251.526 77.704C248.454 75.208 245.286 73.24 242.022 71.8C238.758 70.36 235.11 69.64 231.078 69.64C226.566 69.64 222.966 70.648 220.278 72.664C217.59 74.584 216.246 77.272 216.246 80.728C216.246 82.552 216.63 84.136 217.398 85.48C218.262 86.728 219.366 87.88 220.71 88.936C222.15 89.896 223.782 90.808 225.606 91.672C227.43 92.44 229.302 93.208 231.222 93.976L244.038 99.304C246.822 100.456 249.366 101.8 251.67 103.336C253.974 104.872 255.942 106.648 257.574 108.664C259.302 110.68 260.646 113.032 261.606 115.72C262.566 118.312 263.046 121.336 263.046 124.792C263.046 128.632 262.278 132.232 260.742 135.592C259.206 138.952 256.95 141.928 253.974 144.52C251.094 147.016 247.542 149.032 243.318 150.568C239.19 152.008 234.486 152.728 229.206 152.728Z" fill="#FAFAFA"/>
</svg>
